<svg aria-hidden="true" style="width:0;height:0;position:absolute;overflow:hidden" xmlns="http://www.w3.org/2000/svg"><defs><symbol id="border" viewBox="0 0 61 32"><path fill="none" stroke-width=".921" d="M15.238 1.223h30.476c8.161 0 14.777 6.616 14.777 14.777s-6.616 14.777-14.777 14.777H15.238C7.077 30.777.461 24.161.461 16S7.077 1.223 15.238 1.223z"/></symbol><symbol id="circle" viewBox="0 0 30 32"><path d="M30.118 16c0 8.317-6.742 15.059-15.059 15.059S0 24.317 0 16 6.742.941 15.059.941 30.118 7.683 30.118 16z"/></symbol><symbol id="elipse" viewBox="0 0 61 32"><path d="M15.238.762h30.476C54.13.762 60.952 7.584 60.952 16S54.13 31.238 45.714 31.238H15.238C6.822 31.238 0 24.416 0 16S6.822.762 15.238.762z"/></symbol><symbol id="moon" viewBox="0 0 32 32"><path fill="none" stroke-linejoin="round" stroke-linecap="round" stroke-width="2.526" d="M29.263 17.164A13.262 13.262 0 0 1 3.111 18.83 13.263 13.263 0 0 1 14.836 2.737a10.318 10.318 0 0 0 1.001 13.426 10.317 10.317 0 0 0 13.426 1.001z"/></symbol><symbol id="search" viewBox="0 0 34 32"><path d="M14.667 26.5c2.958-.001 5.831-.941 8.162-2.673l7.327 6.96 2.357-2.239-7.327-6.96c1.823-2.214 2.814-4.944 2.815-7.755 0-6.984-5.982-12.667-13.333-12.667S1.335 6.849 1.335 13.833 7.317 26.5 14.668 26.5zm0-22.167c5.515 0 10 4.261 10 9.5s-4.485 9.5-10 9.5-10-4.261-10-9.5 4.485-9.5 10-9.5z"/></symbol><symbol id="sun" viewBox="0 0 32 32"><path fill="none" stroke-linejoin="round" stroke-linecap="round" stroke-width="2.286" d="M16 1.778v2.586m0 23.272v2.586M5.941 5.941l1.836 1.836m16.446 16.446 1.836 1.836M1.778 16h2.586m23.272 0h2.586M5.941 26.059l1.836-1.836M24.223 7.777l1.836-1.836M22.465 16a6.465 6.465 0 1 1-12.93 0 6.465 6.465 0 0 1 12.93 0z"/></symbol><symbol id="chevron-right" viewBox="0 0 32 32"><path fill="none" stroke="#f4f4f4" style="stroke:var(--color1,#f4f4f4)" stroke-linejoin="round" stroke-linecap="round" stroke-width="2.667" d="m12 24 8-8-8-8"/></symbol><svg id="close-menu" width="24" height="24" viewBox="0 0 24 24" fill="none" xmlns="http://www.w3.org/2000/svg"><path d="M18 6 6 18M6 6l12 12" stroke-width="2" stroke-linecap="round" stroke-linejoin="round"/></svg><svg id="open-menu" width="24" height="24" viewBox="0 0 24 24" fill="none" xmlns="http://www.w3.org/2000/svg"><path d="M3 12h18M3 6h18M3 18h18" stroke-width="2" stroke-linecap="round" stroke-linejoin="round"/></svg><svg id="home" width="32" height="32" viewBox="0 0 32 32" fill="none" xmlns="http://www.w3.org/2000/svg"><circle cx="16" cy="16" r="15.5" fill="#4440F6"/><path d="M9.25 13.75 16 8.5l6.75 5.25V22a1.5 1.5 0 0 1-1.5 1.5h-10.5a1.5 1.5 0 0 1-1.5-1.5v-8.25Z" stroke="#F4F4F4" stroke-linecap="round" stroke-linejoin="round"/><path d="M13.75 23.5V16h4.5v7.5" stroke="#F4F4F4" stroke-linecap="round" stroke-linejoin="round"/><path stroke="#f4f4f4" style="stroke:var(--color1,#f4f4f4)" d="M31.5 16c0 8.56-6.94 15.5-15.5 15.5S.5 24.56.5 16C.5 7.44 7.44.5 16 .5S31.5 7.44 31.5 16z"/></svg><svg id="favorite" width="32" height="32" viewBox="0 0 32 32" fill="none" xmlns="http://www.w3.org/2000/svg"><circle cx="16" cy="16" r="15.5" fill="#4440F6"/><path stroke="#f4f4f4" style="stroke:var(--color1,#f4f4f4)" d="M31.5 16c0 8.56-6.94 15.5-15.5 15.5S.5 24.56.5 16C.5 7.44 7.44.5 16 .5S31.5 7.44 31.5 16z"/><path d="M22.63 10.457a4.126 4.126 0 0 0-5.834 0l-.795.795-.795-.795a4.126 4.126 0 0 0-5.835 5.835l.795.795L16 22.922l5.835-5.835.795-.795a4.127 4.127 0 0 0 0-5.835v0Z" stroke="#F4F4F4" stroke-linecap="round" stroke-linejoin="round"/></svg><svg id="read" width="32" height="32" viewBox="0 0 32 32" fill="none" xmlns="http://www.w3.org/2000/svg"><circle cx="16" cy="16" r="15.5" fill="#4440F6"/><path stroke="#f4f4f4" style="stroke:var(--color1,#f4f4f4)" d="M31.5 16c0 8.56-6.94 15.5-15.5 15.5S.5 24.56.5 16C.5 7.44 7.44.5 16 .5S31.5 7.44 31.5 16z"/><path d="M8.5 9.25H13a3 3 0 0 1 3 3v10.5a2.25 2.25 0 0 0-2.25-2.25H8.5V9.25ZM23.5 9.25H19a3 3 0 0 0-3 3v10.5a2.25 2.25 0 0 1 2.25-2.25h5.25V9.25Z" stroke="#F4F4F4" stroke-linecap="round" stroke-linejoin="round"/></svg></defs></svg>