<svg aria-hidden="true" style="width:0;height:0;position:absolute;overflow:hidden" xmlns="http://www.w3.org/2000/svg"><defs><symbol id="icons_heart-checked" viewBox="0 0 32 32"><path fill="#4b48da" style="fill:var(--color1,#4b48da)" d="M9.331 4C5.65 4 2.664 6.955 2.664 10.6c0 2.943 1.167 9.927 12.651 16.987a1.316 1.316 0 0 0 1.366 0c11.484-7.06 12.651-14.044 12.651-16.987 0-3.645-2.985-6.6-6.667-6.6s-6.667 4-6.667 4-2.985-4-6.667-4z"/></symbol><symbol id="icons_heart" viewBox="0 0 32 32"><path fill="none" stroke="#4440f7" style="stroke:var(--color2,#4440f7)" stroke-linejoin="round" stroke-linecap="round" stroke-width="2" d="M9.331 4C5.65 4 2.664 6.955 2.664 10.6c0 2.943 1.167 9.927 12.651 16.987a1.316 1.316 0 0 0 1.366 0c11.484-7.06 12.651-14.044 12.651-16.987 0-3.645-2.985-6.6-6.667-6.6s-6.667 4-6.667 4-2.985-4-6.667-4z"/></symbol><symbol id="icons_bird" viewBox="0 0 33 32"><path fill="#00dd73" style="fill:var(--color1,#00dd73)" d="M26.696 5.001a.831.831 0 0 0-.574.253L13.356 18.02l-5.253-5.253a.836.836 0 1 0-1.182 1.182l5.843 5.843a.833.833 0 0 0 1.18 0L27.301 6.435a.842.842 0 0 0 .187-.924.835.835 0 0 0-.793-.509z"/></symbol></defs></svg>