<svg aria-hidden="true" style="position:absolute;width:0;height:0;overflow:hidden" xmlns="http://www.w3.org/2000/svg"><defs>
<symbol id="icon-arrow-down" viewBox="0 0 53 32"><path d="M6.267 0 0 6.089 26.667 32 53.334 6.089 47.067 0l-20.4 19.779L6.267 0z"/></symbol>
<symbol id="icon-calendar" viewBox="0 0 32 32"><path d="M23.407 4.444h5.926c.393 0 .77.156 1.048.434s.434.655.434 1.048V29.63c0 .393-.156.77-.434 1.048s-.655.434-1.048.434H2.666c-.393 0-.77-.156-1.048-.434s-.434-.655-.434-1.048V5.926c0-.393.156-.77.434-1.048s.655-.434 1.048-.434h5.926V1.481h2.963v2.963h8.889V1.481h2.963v2.963zm4.445 11.852H4.148v11.852h23.704V16.296zm-7.408-8.889h-8.889v2.963H8.592V7.407H4.148v5.926h23.704V7.407h-4.444v2.963h-2.963V7.407zM7.111 19.259h2.963v2.963H7.111v-2.963zm7.407 0h2.963v2.963h-2.963v-2.963zm7.408 0h2.963v2.963h-2.963v-2.963z"/></symbol></defs></svg>