<svg aria-hidden="true" style="position: absolute; width: 0; height: 0; overflow: hidden;" version="1.1" xmlns="http://www.w3.org/2000/svg" xmlns:xlink="http://www.w3.org/1999/xlink">
<defs>
<symbol id="border" viewBox="0 0 61 32">
<path fill="none" stroke-linejoin="miter" stroke-linecap="butt" stroke-miterlimit="4" stroke-width="0.9214" d="M15.238 1.223h30.476c8.161 0 14.777 6.616 14.777 14.777s-6.616 14.777-14.777 14.777h-30.476c-8.161 0-14.777-6.616-14.777-14.777s6.616-14.777 14.777-14.777z"></path>
</symbol>
<symbol id="circle" viewBox="0 0 30 32">
<path d="M30.118 16c0 8.317-6.742 15.059-15.059 15.059s-15.059-6.742-15.059-15.059c0-8.317 6.742-15.059 15.059-15.059s15.059 6.742 15.059 15.059z"></path>
</symbol>
<symbol id="elipse" viewBox="0 0 61 32">
<path d="M15.238 0.762h30.476c8.416 0 15.238 6.822 15.238 15.238s-6.822 15.238-15.238 15.238h-30.476c-8.416 0-15.238-6.822-15.238-15.238s6.822-15.238 15.238-15.238z"></path>
</symbol>
<symbol id="moon" viewBox="0 0 32 32">
<path fill="none" stroke-linejoin="round" stroke-linecap="round" stroke-miterlimit="4" stroke-width="2.5263" d="M29.263 17.164c-0.232 2.509-1.173 4.899-2.714 6.892s-3.618 3.506-5.987 4.362c-2.369 0.856-4.934 1.019-7.392 0.471s-4.711-1.785-6.492-3.567c-1.781-1.781-3.019-4.033-3.567-6.492s-0.385-5.023 0.471-7.392 2.369-4.446 4.362-5.987c1.993-1.541 4.384-2.482 6.892-2.714-1.469 1.987-2.175 4.435-1.992 6.899s1.246 4.78 2.993 6.527c1.747 1.747 4.063 2.809 6.527 2.993s4.912-0.523 6.899-1.992v0z"></path>
</symbol>
<symbol id="search" viewBox="0 0 34 32">
<path d="M14.667 26.5c2.958-0.001 5.831-0.941 8.162-2.673l7.327 6.96 2.357-2.239-7.327-6.96c1.823-2.214 2.814-4.944 2.815-7.755 0-6.984-5.982-12.667-13.333-12.667s-13.333 5.683-13.333 12.667c0 6.984 5.982 12.667 13.333 12.667zM14.667 4.333c5.515 0 10 4.261 10 9.5s-4.485 9.5-10 9.5c-5.515 0-10-4.261-10-9.5s4.485-9.5 10-9.5z"></path>
</symbol>
<symbol id="sun" viewBox="0 0 32 32">
<path fill="none" stroke-linejoin="round" stroke-linecap="round" stroke-miterlimit="4" stroke-width="2.2857" d="M16 1.778v2.586M16 27.636v2.586M5.941 5.941l1.836 1.836M24.223 24.223l1.836 1.836M1.778 16h2.586M27.636 16h2.586M5.941 26.059l1.836-1.836M24.223 7.777l1.836-1.836M22.465 16c0 3.57-2.894 6.465-6.465 6.465s-6.465-2.894-6.465-6.465c0-3.57 2.894-6.465 6.465-6.465s6.465 2.894 6.465 6.465z"></path>
</symbol>
<svg id="close-menu" width="24" height="24" viewBox="0 0 24 24" fill="none" xmlns="http://www.w3.org/2000/svg">
<path d="M18 6L6 18" stroke="#111321" stroke-width="2" stroke-linecap="round" stroke-linejoin="round"/>
<path d="M6 6L18 18" stroke="#111321" stroke-width="2" stroke-linecap="round" stroke-linejoin="round"/>
</svg>
<svg id="open-menu" width="24" height="24" viewBox="0 0 24 24" fill="none" xmlns="http://www.w3.org/2000/svg">
<path d="M3 12H21" stroke="#111321" stroke-width="2" stroke-linecap="round" stroke-linejoin="round"/>
<path d="M3 6H21" stroke="#111321" stroke-width="2" stroke-linecap="round" stroke-linejoin="round"/>
<path d="M3 18H21" stroke="#111321" stroke-width="2" stroke-linecap="round" stroke-linejoin="round"/>
</svg>

</defs>
</svg>
