<svg aria-hidden="true" style="position: absolute; width: 0; height: 0; overflow: hidden;" version="1.1" xmlns="http://www.w3.org/2000/svg" xmlns:xlink="http://www.w3.org/1999/xlink">
<defs>
<symbol id="border" viewBox="0 0 61 32">
<path fill="none" stroke-linejoin="miter" stroke-linecap="butt" stroke-miterlimit="4" stroke-width="0.9214" d="M15.238 1.223h30.476c8.161 0 14.777 6.616 14.777 14.777s-6.616 14.777-14.777 14.777h-30.476c-8.161 0-14.777-6.616-14.777-14.777s6.616-14.777 14.777-14.777z"></path>
</symbol>
<symbol id="circle" viewBox="0 0 30 32">
<path d="M30.118 16c0 8.317-6.742 15.059-15.059 15.059s-15.059-6.742-15.059-15.059c0-8.317 6.742-15.059 15.059-15.059s15.059 6.742 15.059 15.059z"></path>
</symbol>
<symbol id="elipse" viewBox="0 0 61 32">
<path d="M15.238 0.762h30.476c8.416 0 15.238 6.822 15.238 15.238s-6.822 15.238-15.238 15.238h-30.476c-8.416 0-15.238-6.822-15.238-15.238s6.822-15.238 15.238-15.238z"></path>
</symbol>
<symbol id="moon" viewBox="0 0 32 32">
<path fill="none" stroke-linejoin="round" stroke-linecap="round" stroke-miterlimit="4" stroke-width="2.5263" d="M29.263 17.164c-0.232 2.509-1.173 4.899-2.714 6.892s-3.618 3.506-5.987 4.362c-2.369 0.856-4.934 1.019-7.392 0.471s-4.711-1.785-6.492-3.567c-1.781-1.781-3.019-4.033-3.567-6.492s-0.385-5.023 0.471-7.392 2.369-4.446 4.362-5.987c1.993-1.541 4.384-2.482 6.892-2.714-1.469 1.987-2.175 4.435-1.992 6.899s1.246 4.78 2.993 6.527c1.747 1.747 4.063 2.809 6.527 2.993s4.912-0.523 6.899-1.992v0z"></path>
</symbol>
<symbol id="search" viewBox="0 0 34 32">
<path d="M14.667 26.5c2.958-0.001 5.831-0.941 8.162-2.673l7.327 6.96 2.357-2.239-7.327-6.96c1.823-2.214 2.814-4.944 2.815-7.755 0-6.984-5.982-12.667-13.333-12.667s-13.333 5.683-13.333 12.667c0 6.984 5.982 12.667 13.333 12.667zM14.667 4.333c5.515 0 10 4.261 10 9.5s-4.485 9.5-10 9.5c-5.515 0-10-4.261-10-9.5s4.485-9.5 10-9.5z"></path>
</symbol>
<symbol id="sun" viewBox="0 0 32 32">
<path fill="none" stroke-linejoin="round" stroke-linecap="round" stroke-miterlimit="4" stroke-width="2.2857" d="M16 1.778v2.586M16 27.636v2.586M5.941 5.941l1.836 1.836M24.223 24.223l1.836 1.836M1.778 16h2.586M27.636 16h2.586M5.941 26.059l1.836-1.836M24.223 7.777l1.836-1.836M22.465 16c0 3.57-2.894 6.465-6.465 6.465s-6.465-2.894-6.465-6.465c0-3.57 2.894-6.465 6.465-6.465s6.465 2.894 6.465 6.465z"></path>
</symbol>
<svg id="close-menu" width="24" height="24" viewBox="0 0 24 24" fill="none" xmlns="http://www.w3.org/2000/svg">
<path d="M18 6L6 18"  stroke-width="2" stroke-linecap="round" stroke-linejoin="round"/>
<path d="M6 6L18 18"  stroke-width="2" stroke-linecap="round" stroke-linejoin="round"/>
</svg>
<svg id="open-menu" width="24" height="24" viewBox="0 0 24 24" fill="none" xmlns="http://www.w3.org/2000/svg">
<path d="M3 12H21" stroke-width="2" stroke-linecap="round" stroke-linejoin="round"/>
<path d="M3 6H21" stroke-width="2" stroke-linecap="round" stroke-linejoin="round"/>
<path d="M3 18H21" stroke-width="2" stroke-linecap="round" stroke-linejoin="round"/>
</svg>
<symbol id="chevron-right" viewBox="0 0 32 32">
<path fill="none" stroke="#f4f4f4" style="stroke: var(--color1, #f4f4f4)" stroke-linejoin="round" stroke-linecap="round" stroke-miterlimit="4" stroke-width="2.6667" d="M12 24l8-8-8-8"></path>
</symbol>
<svg id="home" width="32" height="32" viewBox="0 0 32 32" fill="none" xmlns="http://www.w3.org/2000/svg">
<circle cx="16" cy="16" r="15.5" fill="#4440F6"/>
<path d="M9.25 13.75L16 8.5L22.75 13.75V22C22.75 22.3978 22.592 22.7794 22.3107 23.0607C22.0294 23.342 21.6478 23.5 21.25 23.5H10.75C10.3522 23.5 9.97064 23.342 9.68934 23.0607C9.40804 22.7794 9.25 22.3978 9.25 22V13.75Z" stroke="#F4F4F4" stroke-linecap="round" stroke-linejoin="round"/>
<path d="M13.75 23.5V16H18.25V23.5" stroke="#F4F4F4" stroke-linecap="round" stroke-linejoin="round"/>
<path fill="none" stroke="#f4f4f4" style="stroke: var(--color1, #f4f4f4)" stroke-linejoin="miter" stroke-linecap="butt" stroke-miterlimit="4" stroke-width="1" d="M31.5 16c0 8.56-6.94 15.5-15.5 15.5s-15.5-6.94-15.5-15.5c0-8.56 6.94-15.5 15.5-15.5s15.5 6.94 15.5 15.5z"></path>
</svg>
<svg id="favorite" width="32" height="32" viewBox="0 0 32 32" fill="none" xmlns="http://www.w3.org/2000/svg">
<circle cx="16" cy="16" r="15.5" fill="#4440F6"/>
<path fill="none" stroke="#f4f4f4" style="stroke: var(--color1, #f4f4f4)" stroke-linejoin="miter" stroke-linecap="butt" stroke-miterlimit="4" stroke-width="1" d="M31.5 16c0 8.56-6.94 15.5-15.5 15.5s-15.5-6.94-15.5-15.5c0-8.56 6.94-15.5 15.5-15.5s15.5 6.94 15.5 15.5z"></path>
<path d="M22.6306 10.4574C22.2475 10.0742 21.7927 9.77014 21.2921 9.56272C20.7915 9.3553 20.2549 9.24854 19.7131 9.24854C19.1712 9.24854 18.6347 9.3553 18.1341 9.56272C17.6335 9.77014 17.1786 10.0742 16.7956 10.4574L16.0006 11.2524L15.2056 10.4574C14.4318 9.68364 13.3824 9.24894 12.2881 9.24894C11.1938 9.24894 10.1443 9.68364 9.37058 10.4574C8.59681 11.2312 8.16211 12.2806 8.16211 13.3749C8.16211 14.4692 8.59681 15.5186 9.37058 16.2924L10.1656 17.0874L16.0006 22.9224L21.8356 17.0874L22.6306 16.2924C23.0138 15.9093 23.3178 15.4545 23.5253 14.9539C23.7327 14.4533 23.8394 13.9168 23.8394 13.3749C23.8394 12.833 23.7327 12.2965 23.5253 11.7959C23.3178 11.2953 23.0138 10.8405 22.6306 10.4574V10.4574Z" stroke="#F4F4F4" stroke-linecap="round" stroke-linejoin="round"/>
</svg>
<svg id="read" width="32" height="32" viewBox="0 0 32 32" fill="none" xmlns="http://www.w3.org/2000/svg">
<circle cx="16" cy="16" r="15.5" fill="#4440F6"/>
<path fill="none" stroke="#f4f4f4" style="stroke: var(--color1, #f4f4f4)" stroke-linejoin="miter" stroke-linecap="butt" stroke-miterlimit="4" stroke-width="1" d="M31.5 16c0 8.56-6.94 15.5-15.5 15.5s-15.5-6.94-15.5-15.5c0-8.56 6.94-15.5 15.5-15.5s15.5 6.94 15.5 15.5z"></path>
<path d="M8.5 9.25H13C13.7956 9.25 14.5587 9.56607 15.1213 10.1287C15.6839 10.6913 16 11.4544 16 12.25V22.75C16 22.1533 15.7629 21.581 15.341 21.159C14.919 20.7371 14.3467 20.5 13.75 20.5H8.5V9.25Z" stroke="#F4F4F4" stroke-linecap="round" stroke-linejoin="round"/>
<path d="M23.5 9.25H19C18.2044 9.25 17.4413 9.56607 16.8787 10.1287C16.3161 10.6913 16 11.4544 16 12.25V22.75C16 22.1533 16.2371 21.581 16.659 21.159C17.081 20.7371 17.6533 20.5 18.25 20.5H23.5V9.25Z" stroke="#F4F4F4" stroke-linecap="round" stroke-linejoin="round"/>
</svg>

</defs>
</svg>
