<svg aria-hidden="true" style="position: absolute; width: 0; height: 0; overflow: hidden;" version="1.1" xmlns="http://www.w3.org/2000/svg" xmlns:xlink="http://www.w3.org/1999/xlink">
<defs>
<symbol id="icons_heart-checked" viewBox="0 0 32 32">
<path fill="#4b48da" style="fill: var(--color1, #4b48da)" d="M9.331 4c-3.681 0-6.667 2.955-6.667 6.6 0 2.943 1.167 9.927 12.651 16.987 0.206 0.125 0.442 0.191 0.683 0.191s0.477-0.066 0.683-0.191c11.484-7.060 12.651-14.044 12.651-16.987 0-3.645-2.985-6.6-6.667-6.6s-6.667 4-6.667 4-2.985-4-6.667-4z"></path>
</symbol>
<symbol id="icons_heart" viewBox="0 0 32 32">
<path fill="none" stroke="#4440f7" style="stroke: var(--color2, #4440f7)" stroke-linejoin="round" stroke-linecap="round" stroke-miterlimit="4" stroke-width="2" d="M9.331 4c-3.681 0-6.667 2.955-6.667 6.6 0 2.943 1.167 9.927 12.651 16.987 0.206 0.125 0.442 0.191 0.683 0.191s0.477-0.066 0.683-0.191c11.484-7.060 12.651-14.044 12.651-16.987 0-3.645-2.985-6.6-6.667-6.6s-6.667 4-6.667 4-2.985-4-6.667-4z"></path>
</symbol>
<symbol id="icons_bird" viewBox="0 0 33 32">
<path fill="#00dd73" style="fill: var(--color1, #00dd73)" d="M26.696 5.001c-0.217 0.006-0.423 0.097-0.574 0.253l-12.766 12.766-5.253-5.253c-0.077-0.080-0.169-0.144-0.271-0.188s-0.212-0.067-0.323-0.068c-0.111-0.001-0.221 0.020-0.324 0.062s-0.196 0.104-0.275 0.183c-0.079 0.079-0.141 0.172-0.183 0.275s-0.063 0.213-0.062 0.324c0.001 0.111 0.024 0.221 0.068 0.323s0.108 0.194 0.188 0.271l5.843 5.843c0.157 0.157 0.369 0.244 0.59 0.244s0.434-0.088 0.59-0.244l13.357-13.357c0.121-0.117 0.203-0.268 0.236-0.433s0.016-0.336-0.049-0.491c-0.066-0.155-0.176-0.286-0.318-0.377s-0.307-0.137-0.475-0.132z"></path>
</symbol>
</defs>
</svg>
